<?xml version="1.0" encoding="utf-8"?>
<!-- Generator: Adobe Illustrator 19.2.0, SVG Export Plug-In . SVG Version: 6.00 Build 0)  -->
<svg version="1.1" id="Слой_1" xmlns="http://www.w3.org/2000/svg" xmlns:xlink="http://www.w3.org/1999/xlink" x="0px" y="0px"
	 viewBox="0 0 125 26" style="enable-background:new 0 0 125 26;" xml:space="preserve">
<style type="text/css">
	.st0{fill:#FFFFFF;}
	.st1{fill:#41FFB9;}
</style>
<title>logo</title>
<desc>Created with Sketch.</desc>
<g id="Page-2">
	<g id="randomizer_page" transform="translate(-99.000000, -33.000000)">
		<g id="top" transform="translate(-61.000000, -52.000000)">
			<g id="logo" transform="translate(160.000000, 84.647059)">
				<g id="Page-1" transform="translate(12.000000, 8.000000)">
					<g id="Group-21" transform="translate(0.379452, 0.087045)">
						<path id="Fill-2" class="st0" d="M83.8,2v3.3h2.3c1.2,0,2-0.8,2-1.6c0-0.9-0.8-1.6-2-1.6H83.8z M86.1,0.5
							c2.5,0,3.9,1.4,3.9,3.1s-1.4,3.1-3.9,3.1h-2.3v2.9H82V0.5H86.1z"/>
						<path id="Fill-4" class="st0" d="M93.3,2v3.3h2.3c1.2,0,2-0.8,2-1.6c0-0.9-0.8-1.6-2-1.6H93.3z M95.6,0.5
							c2.5,0,3.9,1.4,3.9,3.1s-1.4,3.1-3.9,3.1h-2.3v2.9h-1.8V0.5H95.6z"/>
						<path id="Fill-6" class="st0" d="M4.5,2H2.2v3h2.3c1.2,0,1.9-0.8,1.9-1.5C6.4,2.6,5.7,2,4.5,2L4.5,2z M4.5,0.5
							c2.4,0,3.7,1.3,3.7,3c0,2-1.7,2.6-1.7,2.6v0.1L9,9.6H6.8L4.7,6.5H2.2v3.1H0.4V0.5H4.5z"/>
						<path id="Fill-8" class="st0" d="M12.5,6.2h3.2l-1.5-3.8h-0.1L12.5,6.2z M19,9.6h-1.9l-0.7-1.8h-4.4l-0.7,1.8H9.3L13,0.5h2.3
							L19,9.6z"/>
						<path id="Fill-10" class="st0" d="M26.6,6.8V0.5h1.8v9.2h-1.9L22,3.4h-0.1v6.3h-1.8V0.5h1.9L26.6,6.8L26.6,6.8z"/>
						<path id="Fill-12" class="st0" d="M32.3,2v6.2H34c1.7,0,3-1.2,3-3.1S35.7,2,34,2H32.3z M34,0.5c2.9,0,4.8,2,4.8,4.6
							c0,2.7-1.9,4.6-4.8,4.6h-3.5V0.5H34z"/>
						<path id="Fill-14" class="st0" d="M44.7,1.8c-1.7,0-3,1.3-3,3.3c0,2,1.3,3.3,3,3.3c1.7,0,3-1.3,3-3.3
							C47.6,3.1,46.3,1.8,44.7,1.8 M44.7,0.2c2.8,0,4.8,2,4.8,4.9c0,2.8-2,4.9-4.8,4.9c-2.8,0-4.8-2-4.8-4.9
							C39.8,2.2,41.8,0.2,44.7,0.2"/>
						<path id="Fill-1" class="st0" d="M74.7,0.5L71,9.7h1.9l0.7-1.8h4.4l0.7,1.8h1.9L77,0.5H74.7z M75.8,2.5L75.8,2.5l1.6,3.8h-3.2
							L75.8,2.5z"/>
					</g>
				</g>
				<g id="Imported-Layers" transform="translate(65.000000, 8.000000)">
					<path id="Fill-1_1_" class="st1" d="M11.8,0c0.9,0.8,1.7,1.5,2.6,2.3c-0.9,0.8-1.7,1.5-2.7,2.4V3.2c-1.2-0.1-2.2-0.1-3,0.9
						C7.5,5.6,6.1,7,4.7,8.5C4.4,8.9,4,9,3.5,9C2.7,9,1.8,9,0.9,9C0.4,9,0.1,8.8,0.1,8.3c0-0.5,0.3-0.8,0.8-0.8c0.6,0,1.3,0,1.9,0
						c0.6,0,1-0.2,1.4-0.6c1.4-1.6,2.9-3.1,4.3-4.7c0.4-0.5,0.8-0.7,1.5-0.6c0.6,0,1.2,0,1.9,0V0z"/>
					<path id="Fill-2_1_" class="st1" d="M11.8,7.4V5.9c0.9,0.8,1.8,1.6,2.7,2.4c-0.9,0.8-1.7,1.5-2.6,2.4V9c-0.8,0-1.5,0-2.2,0
						C9.4,9,9,8.9,8.8,8.7c-0.5-0.5-1-1-1.5-1.5C7,6.8,7,6.4,7.3,6.1c0.4-0.4,0.7-0.3,1.1,0c0.1,0.1,0.1,0.1,0.2,0.2
						C9.9,7.6,9.9,7.6,11.8,7.4"/>
					<path id="Fill-3" class="st1" d="M6.4,4C6.3,4.2,6.1,4.5,5.9,4.6c-0.2,0.1-0.6,0-0.8-0.1C4.8,4.3,4.6,4,4.4,3.7
						C4,3.3,3.6,3.1,3,3.1c-0.7,0-1.3,0-2,0c-0.7,0-1-0.3-1-0.8c0-0.5,0.3-0.7,1-0.7c1,0,1.9,0,2.9,0c0.3,0,0.6,0.1,0.9,0.3
						c0.5,0.5,0.9,1,1.4,1.5C6.3,3.5,6.3,3.8,6.4,4"/>
				</g>
			</g>
		</g>
	</g>
</g>
</svg>
