<?xml version="1.0" encoding="utf-8"?>
<!-- Generator: Adobe Illustrator 19.2.0, SVG Export Plug-In . SVG Version: 6.00 Build 0)  -->
<svg version="1.1" id="Слой_1" xmlns="http://www.w3.org/2000/svg" xmlns:xlink="http://www.w3.org/1999/xlink" x="0px" y="0px"
	 viewBox="0 0 250 51" style="enable-background:new 0 0 250 51;" xml:space="preserve">
<style type="text/css">
	.st0{fill:#FFFFFF;}
	.st1{fill:#41FFB9;}
</style>
<title>logo</title>
<desc>Created with Sketch.</desc>
<g id="Page-2">
	<g id="start" transform="translate(-35.000000, -146.000000)">
		<g id="logo" transform="translate(35.000000, 146.000000)">
			<g id="Group" transform="translate(24.000000, 15.000000)">
				<g id="Page-1">
					<g id="Group-21" transform="translate(0.758904, 0.170743)">
						<path id="Fill-2" class="st0" d="M167.6,4v6.4h4.6c2.4,0,4-1.5,4-3.2c0-1.7-1.5-3.2-4-3.2H167.6z M172.2,1
							c5,0,7.7,2.7,7.7,6.2s-2.7,6.2-7.7,6.2h-4.6V19H164V1H172.2z"/>
						<path id="Fill-4" class="st0" d="M186.6,4v6.4h4.6c2.4,0,4-1.5,4-3.2c0-1.7-1.5-3.2-4-3.2H186.6z M191.2,1
							c5,0,7.7,2.7,7.7,6.2s-2.7,6.2-7.7,6.2h-4.6V19H183V1H191.2z"/>
						<path id="Fill-6" class="st0" d="M9,3.9H4.4v5.9H9c2.4,0,3.7-1.5,3.7-3C12.8,5.2,11.5,3.9,9,3.9L9,3.9z M9,0.9
							c4.9,0,7.5,2.6,7.5,5.9c0,3.9-3.3,5.1-3.3,5.1v0.1l4.8,6.8h-4.3l-4.3-6.2h-5v6.2H0.8v-18H9z"/>
						<path id="Fill-8" class="st0" d="M25.1,12.2h6.3l-3.1-7.5h-0.1L25.1,12.2z M38,18.9h-3.9l-1.4-3.6h-8.9l-1.4,3.6h-3.9l7.5-18
							h4.5L38,18.9z"/>
						<path id="Fill-10" class="st0" d="M53.2,13.3V0.9h3.6v18h-3.9L44,6.6h-0.1v12.3h-3.6v-18h3.9L53,13.3H53.2z"/>
						<path id="Fill-12" class="st0" d="M64.6,3.9V16h3.3c3.5,0,5.9-2.4,5.9-6s-2.4-6-5.9-6H64.6z M67.9,0.9c5.8,0,9.7,3.9,9.7,9
							c0,5.3-3.9,9-9.7,9h-7v-18H67.9z"/>
						<path id="Fill-14" class="st0" d="M89.3,3.5c-3.4,0-5.9,2.6-5.9,6.4c0,3.9,2.6,6.4,5.9,6.4c3.3,0,5.9-2.6,5.9-6.4
							C95.3,6.1,92.7,3.5,89.3,3.5 M89.3,0.4c5.7,0,9.7,4,9.7,9.5c0,5.5-4,9.5-9.7,9.5c-5.7,0-9.7-4-9.7-9.5
							C79.7,4.4,83.7,0.4,89.3,0.4"/>
						<path id="Fill-1" class="st0" d="M149.5,1L142,19h3.9l1.4-3.6h8.9l1.4,3.6h3.9L154,1H149.5z M151.7,4.9h0.1l3.1,7.5h-6.3
							L151.7,4.9z"/>
					</g>
				</g>
				<g id="Imported-Layers" transform="translate(106.000000, 0.000000)">
					<path id="Fill-1_1_" class="st1" d="M23.7,0c1.9,1.6,3.5,3,5.3,4.6c-1.7,1.5-3.4,3-5.3,4.6V6.2C21.3,6,19.3,5.9,17.6,8
						c-2.5,3-5.4,5.8-8.1,8.6c-0.7,0.7-1.4,1.1-2.4,1c-1.8-0.1-3.6,0-5.3,0c-1,0-1.6-0.5-1.6-1.5c0-1,0.6-1.5,1.6-1.5
						c1.3,0,2.5-0.1,3.8,0c1.2,0.1,2-0.3,2.8-1.2c2.8-3.1,5.8-6.1,8.6-9.1c0.8-0.9,1.7-1.4,2.9-1.3c1.2,0.1,2.4,0,3.8,0V0z"/>
					<path id="Fill-2_1_" class="st1" d="M23.6,14.6v-3c1.9,1.6,3.5,3.1,5.3,4.6c-1.7,1.5-3.4,3-5.3,4.6v-3.2c-1.6,0-2.9,0.1-4.3,0
						c-0.6,0-1.3-0.2-1.7-0.6c-1-0.9-2-2-2.9-3c-0.6-0.7-0.7-1.5-0.1-2.1c0.7-0.7,1.5-0.6,2.2,0.1c0.1,0.1,0.2,0.2,0.3,0.3
						C19.7,14.9,19.7,14.9,23.6,14.6"/>
					<path id="Fill-3" class="st1" d="M12.8,7.9c-0.3,0.4-0.6,1-1,1.2c-0.5,0.2-1.2,0-1.6-0.2c-0.6-0.4-1-1-1.5-1.5
						C8,6.4,7.2,6,6,6.1c-1.3,0.1-2.7,0-4,0c-1.3,0-2-0.6-2-1.6c0-1,0.7-1.4,1.9-1.4c1.9,0,3.9,0,5.8,0c0.6,0,1.3,0.2,1.7,0.6
						c1,0.9,1.9,1.9,2.8,2.9C12.5,7,12.6,7.4,12.8,7.9"/>
				</g>
			</g>
		</g>
	</g>
</g>
</svg>
