<?xml version="1.0" encoding="utf-8"?>
<!-- Generator: Adobe Illustrator 19.2.0, SVG Export Plug-In . SVG Version: 6.00 Build 0)  -->
<svg version="1.1" id="Слой_1" xmlns="http://www.w3.org/2000/svg" xmlns:xlink="http://www.w3.org/1999/xlink" x="0px" y="0px"
	 viewBox="0 0 137 17" style="enable-background:new 0 0 137 17;" xml:space="preserve">
<style type="text/css">
	.st0{fill:#FFFFFF;}
	.st1{font-family:'Arial-BoldMT';}
	.st2{font-size:16px;}
</style>
<title>Group 3</title>
<desc>Created with Sketch.</desc>
<g id="Page-2">
	<g id="rezult_page" transform="translate(-75.000000, -514.000000)">
		<g id="Group-3" transform="translate(75.000000, 513.000000)">
			<g id="Imported-Layers" transform="translate(0.000000, 1.000000)">
				<path id="Fill-1" class="st0" d="M19.1,0c1.5,1.3,2.8,2.4,4.3,3.7c-1.4,1.2-2.7,2.4-4.3,3.7V5c-1.9-0.1-3.5-0.2-4.9,1.5
					c-2,2.5-4.4,4.6-6.5,7c-0.5,0.6-1.1,0.9-1.9,0.8c-1.4,0-2.9,0-4.3,0c-0.8,0-1.3-0.4-1.3-1.2c0-0.8,0.5-1.2,1.3-1.2
					c1,0,2-0.1,3.1,0c0.9,0.1,1.6-0.3,2.3-1C9,8.4,11.4,6,13.7,3.5c0.7-0.7,1.4-1.1,2.3-1c0.9,0.1,1.9,0,3,0V0z"/>
				<path id="Fill-2" class="st0" d="M19.1,11.7V9.3c1.5,1.3,2.9,2.5,4.3,3.7c-1.4,1.2-2.7,2.4-4.3,3.7v-2.5c-1.3,0-2.4,0-3.5,0
					c-0.5,0-1-0.2-1.4-0.5c-0.8-0.7-1.6-1.6-2.4-2.4c-0.5-0.6-0.6-1.2,0-1.7c0.6-0.6,1.2-0.5,1.8,0c0.1,0.1,0.2,0.2,0.3,0.3
					C15.9,12,15.9,12,19.1,11.7"/>
				<path id="Fill-3" class="st0" d="M10.3,6.3c-0.3,0.3-0.5,0.8-0.8,0.9c-0.4,0.1-1,0-1.3-0.2C7.7,6.8,7.4,6.3,7,5.9
					c-0.6-0.7-1.3-1-2.2-1c-1.1,0.1-2.2,0-3.3,0C0.5,4.9,0,4.4,0,3.6c0-0.8,0.5-1.2,1.6-1.2c1.6,0,3.1,0,4.7,0c0.5,0,1,0.2,1.4,0.5
					c0.8,0.7,1.5,1.6,2.3,2.4C10.1,5.6,10.2,5.9,10.3,6.3"/>
			</g>
			<text transform="matrix(1 0 0 1 41.8541 14.9988)" class="st0 st1 st2">rerandomize</text>
		</g>
	</g>
</g>
</svg>
