<?xml version="1.0" encoding="UTF-8" standalone="no"?>
<svg width="309px" height="10px" viewBox="0 0 309 10" version="1.1" xmlns="http://www.w3.org/2000/svg" xmlns:xlink="http://www.w3.org/1999/xlink">
    <!-- Generator: Sketch 3.6.1 (26313) - http://www.bohemiancoding.com/sketch -->
    <title>status\-bar</title>
    <desc>Created with Sketch.</desc>
    <defs></defs>
    <g id="Page-2" stroke="none" stroke-width="1" fill="none" fill-rule="evenodd">
        <g id="randomizer_page" transform="translate(-6.000000, -5.000000)" fill="#FFFFFF">
            <g id="status\-bar" transform="translate(6.000000, 3.000000)">
                <g id="Status-Bar" transform="translate(0.500000, 0.000000)">
                    <g id="Signal-Indicator" transform="translate(0.000000, 4.490124)">
                        <ellipse id="1" cx="2.75" cy="2.74396465" rx="2.75" ry="2.74396465"></ellipse>
                        <ellipse id="2" cx="9.75" cy="2.74396465" rx="2.75" ry="2.74396465"></ellipse>
                        <ellipse id="3" cx="16.75" cy="2.74396465" rx="2.75" ry="2.74396465"></ellipse>
                        <path d="M23.75,5.4879293 C25.2687831,5.4879293 26.5,4.25941455 26.5,2.74396465 C26.5,1.22851474 25.2687831,0 23.75,0 C22.2312169,0 21,1.22851474 21,2.74396465 C21,4.25941455 22.2312169,5.4879293 23.75,5.4879293 Z M23.75,4.98902664 C24.9926407,4.98902664 26,3.98387821 26,2.74396465 C26,1.50405109 24.9926407,0.498902664 23.75,0.498902664 C22.5073593,0.498902664 21.5,1.50405109 21.5,2.74396465 C21.5,3.98387821 22.5073593,4.98902664 23.75,4.98902664 Z" id="4"></path>
                        <path d="M30.75,5.4879293 C32.2687831,5.4879293 33.5,4.25941455 33.5,2.74396465 C33.5,1.22851474 32.2687831,0 30.75,0 C29.2312169,0 28,1.22851474 28,2.74396465 C28,4.25941455 29.2312169,5.4879293 30.75,5.4879293 Z M30.75,4.98902664 C31.9926407,4.98902664 33,3.98387821 33,2.74396465 C33,1.50405109 31.9926407,0.498902664 30.75,0.498902664 C29.5073593,0.498902664 28.5,1.50405109 28.5,2.74396465 C28.5,3.98387821 29.5073593,4.98902664 30.75,4.98902664 Z" id="5"></path>
                    </g>
                    <path d="M51.091427,5.20951932 C49.4973718,3.53707066 47.2457049,2.49451332 44.75,2.49451332 C42.2669091,2.49451332 40.0253956,3.52655853 38.4327938,5.18420854 L39.4937411,6.24282734 C40.814642,4.85589806 42.6811208,3.99122131 44.75,3.99122131 C46.8322863,3.99122131 48.7095405,4.86714126 50.03187,6.26985656 L51.091427,5.20951932 Z M48.9720761,7.33043085 C47.9216851,6.19734242 46.418871,5.4879293 44.75,5.4879293 C43.0953309,5.4879293 41.6039045,6.18531973 40.5548382,7.30159568 L41.616244,8.36067212 C42.3931981,7.5149114 43.5095367,6.98463729 44.75,6.98463729 C46.0054643,6.98463729 47.1337837,7.52781425 47.911794,8.39149373 L48.9720761,7.33043085 Z M46.8502209,9.45384862 C46.3457774,8.85900936 45.5920898,8.48134528 44.75,8.48134528 C43.9237265,8.48134528 43.1825656,8.84495587 42.6784655,9.42056236 L44.7840576,11.5215334 L46.8502209,9.45384862 Z" id="Wi-Fi"></path>
                    <text id="9:41-AM" font-family="HelveticaNeue, Helvetica Neue" font-size="11.9736639" font-weight="normal">
                        <tspan x="131" y="11">9:41 AM</tspan>
                    </text>
                    <text id="90%" font-family="HelveticaNeue, Helvetica Neue" font-size="11.9736639" font-weight="normal">
                        <tspan x="254.5" y="11">90%</tspan>
                    </text>
                    <path d="M306.5,8.9635703 C307.347592,8.84610738 308,8.12205442 308,7.23408862 C308,6.35301975 307.340367,5.62436134 306.5,5.50504511 L306.5,8.9635703 Z M286.499456,2.49451332 C284.842902,2.49451332 283.5,3.83253933 283.5,5.49377581 L283.5,8.97440143 C283.5,10.6308484 284.840096,11.9736639 286.499456,11.9736639 L303.000544,11.9736639 C304.657098,11.9736639 306,10.6356379 306,8.97440143 L306,5.49377581 C306,3.83732888 304.659904,2.49451332 303.000544,2.49451332 L286.499456,2.49451332 Z M286.003361,2.99341598 C284.896935,2.99341598 284,3.88503834 284,5.00337642 L284,9.46480082 C284,10.5748713 284.896456,11.4747613 286.003361,11.4747613 L303.496639,11.4747613 C304.603065,11.4747613 305.5,10.5831389 305.5,9.46480082 L305.5,5.00337642 C305.5,3.89330592 304.603544,2.99341598 303.496639,2.99341598 L286.003361,2.99341598 Z M285.491017,3.49231864 C284.943693,3.49231864 284.5,3.93803695 284.5,4.50158214 L284.5,9.9665951 C284.5,10.5239959 284.950173,10.9758586 285.491017,10.9758586 L302,10.9758586 L302,3.49231864 L285.491017,3.49231864 Z" id="Battery"></path>
                </g>
            </g>
        </g>
    </g>
</svg>